<?xml version="1.0" encoding="UTF-8"?>
<svg width="18px" height="33px" viewBox="0 0 18 33" version="1.1" xmlns="http://www.w3.org/2000/svg" xmlns:xlink="http://www.w3.org/1999/xlink">
    <title>icon / 36x36 / ar-right</title>
    <g id="About-us" stroke="none" stroke-width="1" fill-rule="evenodd">
        <g id="Holisticon_team_1" transform="translate(-1319.000000, -1165.000000)" fill-rule="nonzero">
            <g id="icon-/-36x36-/-ar-right" transform="translate(1310.000000, 1163.000000)">
                <path d="M24.4393398,2.43933983 C25.0251263,1.85355339 25.9748737,1.85355339 26.5606602,2.43933983 C27.109835,2.98851461 27.1441584,3.85757702 26.6636304,4.44673776 L26.5606602,4.56066017 L12.621,18.5 L26.5606602,32.4393398 C27.109835,32.9885146 27.1441584,33.857577 26.6636304,34.4467378 L26.5606602,34.5606602 C26.0114854,35.109835 25.142423,35.1441584 24.5532622,34.6636304 L24.4393398,34.5606602 L9.43933983,19.5606602 C8.89016504,19.0114854 8.85584162,18.142423 9.33636956,17.5532622 L9.43933983,17.4393398 L24.4393398,2.43933983 Z" transform="translate(18.000000, 18.500000) scale(-1, -1) translate(-18.000000, -18.500000) "></path>
            </g>
        </g>
    </g>
</svg>
