<?xml version="1.0" encoding="UTF-8"?>
<svg width="20px" height="20px" viewBox="0 0 20 20" version="1.1" xmlns="http://www.w3.org/2000/svg" xmlns:xlink="http://www.w3.org/1999/xlink">
    <title>Group 3</title>
    <g id="Symbols" stroke="none" stroke-width="1" fill="none" fill-rule="evenodd">
        <g id="Layout-/-header-/-header-logo" transform="translate(-150.000000, -25.000000)" fill="#FFFFFF">
            <g id="Group-3" transform="translate(150.000000, 25.000000)">
                <path d="M20,-1.56319402e-13 L20,10.0004159 C20,15.5229343 15.5228105,20 10,20 C4.47718948,20 -3.55271368e-14,15.5229343 -3.55271368e-14,10.0004159 C-3.55271368e-14,4.47789745 4.47718948,-1.56319402e-13 10,-1.56319402e-13 L10,-1.56319402e-13 L20,-1.56319402e-13 Z M16.6933067,3.3068574 L10,3.3068574 C6.30869131,3.3068574 3.30586081,6.30931093 3.30586081,10.0004159 C3.30586081,13.6906891 6.30869131,16.6939743 10,16.6939743 C13.6838162,16.6939743 16.6824842,13.7023329 16.6933067,10.0203768 L16.6933067,10.0203768 L16.6933067,3.3068574 Z" id="Combined-Shape"></path>
            </g>
        </g>
    </g>
</svg>