<?xml version="1.0" encoding="UTF-8"?>
<svg width="160px" height="119px" viewBox="0 0 160 119" version="1.1" xmlns="http://www.w3.org/2000/svg" xmlns:xlink="http://www.w3.org/1999/xlink">
    <title>Shape</title>
    <g id="About-us" stroke="none" stroke-width="1" fill="none" fill-rule="evenodd">
        <g id="Holisticon_team_1" transform="translate(-299.000000, -4563.000000)" fill="#FFFFFF" fill-rule="nonzero">
            <path d="M320.231423,4623.68527 C325.624204,4616.6297 334.159236,4613.48444 343.92569,4613.48444 C361.972399,4613.48444 375.008493,4625.68293 375.008493,4646.2546 C375.008493,4665.59367 362.821656,4682 337.216561,4682 C313.692144,4682 299,4665.16863 299,4637.83892 C299,4601.28595 320.953291,4572.59612 360.656051,4563.11786 C362.991507,4562.56531 365.581741,4564.01043 366.388535,4566.30561 L367.195329,4568.6008 C368.002123,4570.89599 366.770701,4573.14867 364.435244,4573.82872 C338.235669,4581.18182 322.354565,4597.16312 318.40552,4623.04772 C318.065817,4625.42791 318.745223,4625.64043 320.231423,4623.68527 Z M404.22293,4623.68527 C409.615711,4616.6297 418.150743,4613.48444 427.917197,4613.48444 C445.963907,4613.48444 459,4625.68293 459,4646.2546 C459,4665.59367 446.813163,4682 421.208068,4682 C397.683652,4682 382.991507,4665.16863 382.991507,4637.83892 C382.991507,4601.28595 404.944798,4572.59612 444.690021,4563.11786 C447.025478,4562.56531 449.615711,4564.01043 450.422505,4566.30561 L451.229299,4568.6008 C452.036093,4570.89599 450.804671,4573.14867 448.469214,4573.82872 C422.269639,4581.18182 406.388535,4597.16312 402.43949,4623.04772 C402.057325,4625.42791 402.779193,4625.64043 404.22293,4623.68527 Z" id="Shape"></path>
        </g>
    </g>
</svg>